<?xml version="1.0" encoding="UTF-8"?>
<svg id="uuid-af7a08ab-4a07-4b76-9694-a515e73d6c0f" data-name="Layer 2" xmlns="http://www.w3.org/2000/svg" width="709.21" height="183.63" viewBox="0 0 709.21 183.63">
  <g id="uuid-037bac91-6bdb-455e-8669-205b627bae50" data-name="Layer 1">
    <g>
      <path d="M91.62,0c14.61,0,28.42,3.42,40.68,9.49V53.38l-13.87-8.01-26.82-15.48h0L53.88,8.1C65.39,2.9,78.17,0,91.62,0h0Zm-26.81,45.37l13.87-8L40.68,15.43C18.44,30.29,3.05,54.61,.27,82.64l37.73-21.78h0l26.82-15.48h0Zm-26.82,30.43v90.53C16.37,150.74,1.8,125.98,0,97.74l37.99-21.94h0Zm12.95,54.45l13.87,8.01,26.81,15.48h0l37.74,21.79c-11.52,5.2-24.29,8.1-37.75,8.1-14.61,0-28.42-3.42-40.68-9.49v-43.89h0Zm67.49,8.01l-13.86,8,37.99,21.94c22.24-14.87,37.63-39.18,40.42-67.21l-37.73,21.78h0s-26.82,15.48-26.82,15.48h0Zm26.82-30.43V17.29c21.62,15.59,36.2,40.36,38,68.59l-38,21.94Z" style="fill: #fff; fill-rule: evenodd;"/>
      <polygon points="130.86 116.74 130.86 69.74 90.16 46.24 49.45 69.74 49.45 116.74 90.16 140.24 130.86 116.74" style="fill: #a5e024; fill-rule: evenodd;"/>
      <g>
        <path d="M219.5,116.31c1.53-.22,1.74-.55,1.74-2.18V61.57c0-1.64-.22-1.96-1.74-2.18l-6.87-.76v-10.25h40.34v10.25l-9.05,.87c-1.64,.11-1.75,.54-1.75,2.07v51.68h14.5c1.2,0,1.53-.11,1.74-1.2l1.75-11.56h14.83v26.82h-62.37v-10.25l6.87-.76Z" style="fill: #fff;"/>
        <path d="M311.97,128.63c-21.81,0-29.33-13.08-29.33-30.31,0-19.95,12.65-29.44,28.35-29.44s24.86,7.63,24.86,27.15c0,1.2-.11,3.38-.33,5.89h-31.18c.44,8.18,3.6,11.56,10.36,11.56,3.16,0,8.29-.76,16.68-3.49l4.58,12.65c-7.63,3.49-15.59,6-23.99,6Zm-1.64-45.69c-3.05,0-5.56,1.64-6,9.16h11.56c0-7.85-2.4-9.16-5.56-9.16Z" style="fill: #fff;"/>
        <path d="M371.4,116.31l4.69,.76v10.25h-33.15v-10.36l4.58-.65c1.53-.22,1.75-.55,1.75-2.18v-29.11c0-1.2-.33-1.85-1.42-2.29l-5.56-2.07,1.42-10.58h21.92l.87,5.12h.76c4.14-2.94,9.38-6.32,18.43-6.32,11.12,0,15.92,6.11,15.92,18.75v26.5c0,1.74,.11,1.96,1.74,2.18l5.02,.76v10.25h-27.15v-35.76c0-4.91-.76-6.98-4.14-6.98-3.16,0-5.78,1.31-7.42,2.4v27.15c0,1.74,.11,1.96,1.75,2.18Z" style="fill: #fff;"/>
        <path d="M445.66,81.53c-1.31-.44-3.49-.76-6-.76-3.93,0-6.76,1.2-6.76,4.03s4.14,3.82,9.38,4.91c9.05,1.85,21.37,4.36,21.37,19.08,0,13.74-10.9,19.85-26.17,19.85-10.58,0-21.04-2.62-23.01-4.03v-15.7l14.28,.87,.98,5.34c.22,1.2,.44,1.53,1.42,1.74,1.2,.33,3.92,.76,7.2,.76,4.91,0,7.31-1.42,7.31-4.47,0-3.93-5.12-4.8-11.23-5.78-8.72-1.42-19.74-4.25-19.74-18.43s12.21-20.06,25.62-20.06c9.05,0,18.21,1.96,21.7,3.38v16.79l-14.28-.76-.98-5.23c-.11-.87-.33-1.31-1.09-1.53Z" style="fill: #fff;"/>
        <path d="M477.83,116.42c1.53-.22,1.74-.54,1.74-2.18V61.68c0-1.64-.22-1.96-1.74-2.18l-6.87-.76v-10.36h39.15c18.65,0,24.1,8.5,24.1,19.3s-6.65,16.14-13.3,18.32v.33c12.43,1.42,17.99,8.18,17.99,19.08,0,16.14-12.98,21.92-30.09,21.92h-37.84v-10.14l6.87-.76Zm36.75-45.14c0-8.29-5.78-8.61-11.23-8.61h-2.94v17.88h1.31c7.31,0,12.87-1.42,12.87-9.27Zm2.73,31.73c0-8.07-5.12-9.6-11.01-9.6h-5.89v19.84h4.58c7.74,0,12.32-2.29,12.32-10.25Z" style="fill: #fff;"/>
        <path d="M549.58,116.31c1.53-.22,1.75-.55,1.75-2.18V59.94c0-1.2-.33-1.85-1.42-2.29l-5.67-2.07,1.42-10.58h26.06V114.13c0,1.74,.11,1.96,1.75,2.18l4.69,.76v10.25h-33.15v-10.36l4.58-.65Z" style="fill: #fff;"/>
        <path d="M583.38,98.43c0-17.66,9.81-29.55,30.64-29.55s29.22,12.1,29.22,29c0,18.65-9.38,30.75-30.31,30.75s-29.55-12.32-29.55-30.2Zm38.6,0c0-12.1-3.27-15.48-8.29-15.48s-8.94,3.16-8.94,15.59,3.38,16.36,8.61,16.36,8.61-3.71,8.61-16.46Z" style="fill: #fff;"/>
        <path d="M703,92.21c0,11.67-9.81,18.32-23.55,18.32-3.92,0-6.11-.33-7.85-.76l-3.27,4.14,10.47,.44c18.54,.76,29.55,1.74,29.55,17.12,0,13.74-12.32,20.39-31.29,20.39-20.28,0-27.7-4.58-27.7-12.98,0-5.12,3.05-8.18,6.43-11.45-3.82-1.64-5.56-4.69-5.56-7.74,0-1.85,.87-3.93,2.62-5.67,2.18-2.18,5.23-4.58,8.29-6.98-5.78-2.62-10.36-8.18-10.36-16.68,0-11.67,8.29-21.48,26.17-21.48,4.36,0,8.83,.55,11.12,1.2h21.15v10.47l-10.36,.65c1.85,2.4,4.14,6.11,4.14,11.01Zm-38.6,43.29c0,4.25,7.52,4.69,13.3,4.69,3.49,0,11.12-.22,11.12-4.69,0-3.16-3.27-3.71-7.42-3.92l-14.83-.76c-1.2,1.42-2.18,2.94-2.18,4.69Zm13.63-53.65c-4.58,0-8.29,2.51-8.29,8.07,0,5.02,2.51,7.85,7.96,7.85,4.69,0,8.29-3.05,8.29-7.74,0-5.45-3.27-8.18-7.96-8.18Z" style="fill: #fff;"/>
      </g>
    </g>
  </g>
</svg>