<?xml version="1.0" encoding="UTF-8"?>
<svg id="uuid-6d45f05c-d9a6-48ac-876b-dd4bd65832d1" data-name="Layer 2" xmlns="http://www.w3.org/2000/svg" width="183.63" height="183.63">
  <g id="uuid-51a5d69b-8147-461f-ae3b-1d99346f1d12" data-name="Layer 1">
    <g>
      <path d="M91.62,0c14.61,0,28.42,3.42,40.68,9.49V53.38l-13.87-8.01-26.82-15.48h0L53.88,8.1C65.39,2.9,78.17,0,91.62,0h0Zm-26.81,45.37l13.87-8L40.68,15.43C18.44,30.29,3.05,54.61,.27,82.64l37.73-21.78h0l26.82-15.48h0Zm-26.82,30.43v90.53C16.37,150.74,1.8,125.98,0,97.74l37.99-21.94h0Zm12.95,54.45l13.87,8.01,26.81,15.48h0l37.74,21.79c-11.52,5.2-24.29,8.1-37.75,8.1-14.61,0-28.42-3.42-40.68-9.49v-43.89h0Zm67.49,8.01l-13.86,8,37.99,21.94c22.24-14.87,37.63-39.18,40.42-67.21l-37.73,21.78h0s-26.82,15.48-26.82,15.48h0Zm26.82-30.43V17.29c21.62,15.59,36.2,40.36,38,68.59l-38,21.94Z" style="fill: #252e42; fill-rule: evenodd;"/>
      <polygon points="130.86 116.74 130.86 69.74 90.16 46.24 49.45 69.74 49.45 116.74 90.16 140.24 130.86 116.74" style="fill: #a5e024; fill-rule: evenodd;"/>
    </g>
  </g>
</svg>